<mxfile host="app.diagrams.net" modified="2022-03-01T11:34:14.826Z" agent="5.0 (Windows NT 10.0; WOW64) AppleWebKit/537.36 (KHTML, like Gecko) Chrome/86.0.4240.198 Safari/537.36" etag="10icXojX1jiDY6iwHcDB" version="16.6.4" type="github">
  <diagram name="Page-1" id="13e1069c-82ec-6db2-03f1-153e76fe0fe0">
    <mxGraphModel dx="716" dy="358" grid="1" gridSize="10" guides="1" tooltips="1" connect="1" arrows="1" fold="1" page="1" pageScale="1" pageWidth="1100" pageHeight="850" background="none" math="0" shadow="0">
      <root>
        <mxCell id="0" />
        <mxCell id="1" parent="0" />
        <mxCell id="-loWOBMDPaf_zWbP4MA2-8" value="&lt;span style=&quot;font-size: 11px ; text-align: left&quot;&gt;PowerManager.WakeLock&lt;/span&gt;" style="shape=umlLifeline;perimeter=lifelinePerimeter;whiteSpace=wrap;html=1;container=1;collapsible=0;recursiveResize=0;outlineConnect=0;rounded=1;shadow=0;comic=0;labelBackgroundColor=none;strokeWidth=1;fontFamily=Verdana;fontSize=12;align=center;" vertex="1" parent="1">
          <mxGeometry x="680" y="80" width="100" height="580" as="geometry" />
        </mxCell>
        <mxCell id="-loWOBMDPaf_zWbP4MA2-44" value="initialize" style="html=1;verticalAlign=bottom;endArrow=block;rounded=0;exitX=0.914;exitY=0.476;exitDx=0;exitDy=0;exitPerimeter=0;" edge="1" parent="-loWOBMDPaf_zWbP4MA2-8" target="-loWOBMDPaf_zWbP4MA2-43">
          <mxGeometry width="80" relative="1" as="geometry">
            <mxPoint x="-220.15000000000015" y="239.66000000000003" as="sourcePoint" />
            <mxPoint x="45" y="240.00999999999993" as="targetPoint" />
          </mxGeometry>
        </mxCell>
        <mxCell id="-loWOBMDPaf_zWbP4MA2-15" value="" style="html=1;points=[];perimeter=orthogonalPerimeter;rounded=0;shadow=0;comic=0;labelBackgroundColor=none;strokeWidth=1;fontFamily=Verdana;fontSize=12;align=center;" vertex="1" parent="1">
          <mxGeometry x="725" y="280" width="10" height="80" as="geometry" />
        </mxCell>
        <mxCell id="-loWOBMDPaf_zWbP4MA2-1" value="NfcAdapterService" style="shape=umlLifeline;perimeter=lifelinePerimeter;whiteSpace=wrap;html=1;container=1;collapsible=0;recursiveResize=0;outlineConnect=0;rounded=1;shadow=0;comic=0;labelBackgroundColor=none;strokeWidth=1;fontFamily=Verdana;fontSize=12;align=center;" vertex="1" parent="1">
          <mxGeometry x="240" y="80" width="100" height="580" as="geometry" />
        </mxCell>
        <mxCell id="-loWOBMDPaf_zWbP4MA2-2" value="" style="html=1;points=[];perimeter=orthogonalPerimeter;rounded=0;shadow=0;comic=0;labelBackgroundColor=none;strokeWidth=1;fontFamily=Verdana;fontSize=12;align=center;" vertex="1" parent="-loWOBMDPaf_zWbP4MA2-1">
          <mxGeometry x="45" y="100" width="10" height="230" as="geometry" />
        </mxCell>
        <mxCell id="-loWOBMDPaf_zWbP4MA2-3" value="EnableDisableTask" style="shape=umlLifeline;perimeter=lifelinePerimeter;whiteSpace=wrap;html=1;container=1;collapsible=0;recursiveResize=0;outlineConnect=0;rounded=1;shadow=0;comic=0;labelBackgroundColor=none;strokeWidth=1;fontFamily=Verdana;fontSize=12;align=center;" vertex="1" parent="1">
          <mxGeometry x="400" y="80" width="100" height="580" as="geometry" />
        </mxCell>
        <mxCell id="-loWOBMDPaf_zWbP4MA2-4" value="" style="html=1;points=[];perimeter=orthogonalPerimeter;rounded=0;shadow=0;comic=0;labelBackgroundColor=none;strokeWidth=1;fontFamily=Verdana;fontSize=12;align=center;" vertex="1" parent="-loWOBMDPaf_zWbP4MA2-3">
          <mxGeometry x="45" y="120" width="10" height="200" as="geometry" />
        </mxCell>
        <mxCell id="-loWOBMDPaf_zWbP4MA2-5" value="" style="html=1;points=[];perimeter=orthogonalPerimeter;" vertex="1" parent="-loWOBMDPaf_zWbP4MA2-3">
          <mxGeometry x="50" y="160" width="10" height="130" as="geometry" />
        </mxCell>
        <mxCell id="-loWOBMDPaf_zWbP4MA2-6" value="enableInternal" style="edgeStyle=orthogonalEdgeStyle;html=1;align=left;spacingLeft=2;endArrow=block;rounded=0;entryX=1;entryY=0;" edge="1" parent="-loWOBMDPaf_zWbP4MA2-3" target="-loWOBMDPaf_zWbP4MA2-5">
          <mxGeometry relative="1" as="geometry">
            <mxPoint x="55" y="140" as="sourcePoint" />
            <Array as="points">
              <mxPoint x="85" y="140" />
            </Array>
          </mxGeometry>
        </mxCell>
        <mxCell id="-loWOBMDPaf_zWbP4MA2-40" value="启动watchDog线程" style="html=1;verticalAlign=bottom;endArrow=block;rounded=0;" edge="1" parent="-loWOBMDPaf_zWbP4MA2-3" target="-loWOBMDPaf_zWbP4MA2-14">
          <mxGeometry width="80" relative="1" as="geometry">
            <mxPoint x="60" y="180" as="sourcePoint" />
            <mxPoint x="180" y="180" as="targetPoint" />
          </mxGeometry>
        </mxCell>
        <mxCell id="-loWOBMDPaf_zWbP4MA2-7" value="WatchDogThread" style="shape=umlLifeline;perimeter=lifelinePerimeter;whiteSpace=wrap;html=1;container=1;collapsible=0;recursiveResize=0;outlineConnect=0;rounded=1;shadow=0;comic=0;labelBackgroundColor=none;strokeWidth=1;fontFamily=Verdana;fontSize=12;align=center;" vertex="1" parent="1">
          <mxGeometry x="540" y="80" width="100" height="580" as="geometry" />
        </mxCell>
        <mxCell id="-loWOBMDPaf_zWbP4MA2-9" value="DeviceHost" style="shape=umlLifeline;perimeter=lifelinePerimeter;whiteSpace=wrap;html=1;container=1;collapsible=0;recursiveResize=0;outlineConnect=0;rounded=1;shadow=0;comic=0;labelBackgroundColor=none;strokeWidth=1;fontFamily=Verdana;fontSize=12;align=center;" vertex="1" parent="1">
          <mxGeometry x="820" y="80" width="100" height="580" as="geometry" />
        </mxCell>
        <mxCell id="-loWOBMDPaf_zWbP4MA2-43" value="" style="html=1;points=[];perimeter=orthogonalPerimeter;rounded=0;shadow=0;comic=0;labelBackgroundColor=none;strokeWidth=1;fontFamily=Verdana;fontSize=12;align=center;" vertex="1" parent="-loWOBMDPaf_zWbP4MA2-9">
          <mxGeometry x="45" y="230" width="10" height="20" as="geometry" />
        </mxCell>
        <mxCell id="-loWOBMDPaf_zWbP4MA2-10" value=":Object" style="shape=umlLifeline;perimeter=lifelinePerimeter;whiteSpace=wrap;html=1;container=1;collapsible=0;recursiveResize=0;outlineConnect=0;rounded=1;shadow=0;comic=0;labelBackgroundColor=none;strokeWidth=1;fontFamily=Verdana;fontSize=12;align=center;" vertex="1" parent="1">
          <mxGeometry x="960" y="80" width="100" height="580" as="geometry" />
        </mxCell>
        <mxCell id="-loWOBMDPaf_zWbP4MA2-11" value="NfcAdapter" style="shape=umlLifeline;perimeter=lifelinePerimeter;whiteSpace=wrap;html=1;container=1;collapsible=0;recursiveResize=0;outlineConnect=0;rounded=1;shadow=0;comic=0;labelBackgroundColor=none;strokeWidth=1;fontFamily=Verdana;fontSize=12;align=center;" vertex="1" parent="1">
          <mxGeometry x="100" y="80" width="100" height="580" as="geometry" />
        </mxCell>
        <mxCell id="-loWOBMDPaf_zWbP4MA2-12" value="" style="html=1;points=[];perimeter=orthogonalPerimeter;rounded=0;shadow=0;comic=0;labelBackgroundColor=none;strokeWidth=1;fontFamily=Verdana;fontSize=12;align=center;" vertex="1" parent="-loWOBMDPaf_zWbP4MA2-11">
          <mxGeometry x="45" y="100" width="10" height="440" as="geometry" />
        </mxCell>
        <mxCell id="-loWOBMDPaf_zWbP4MA2-13" value="enable" style="html=1;verticalAlign=bottom;endArrow=block;entryX=0;entryY=0;labelBackgroundColor=none;fontFamily=Verdana;fontSize=12;edgeStyle=elbowEdgeStyle;elbow=vertical;" edge="1" parent="-loWOBMDPaf_zWbP4MA2-11">
          <mxGeometry relative="1" as="geometry">
            <mxPoint x="-85" y="100" as="sourcePoint" />
            <mxPoint x="45" y="100" as="targetPoint" />
          </mxGeometry>
        </mxCell>
        <mxCell id="-loWOBMDPaf_zWbP4MA2-14" value="" style="html=1;points=[];perimeter=orthogonalPerimeter;rounded=0;shadow=0;comic=0;labelBackgroundColor=none;strokeWidth=1;fontFamily=Verdana;fontSize=12;align=center;" vertex="1" parent="1">
          <mxGeometry x="585" y="250" width="10" height="20" as="geometry" />
        </mxCell>
        <mxCell id="-loWOBMDPaf_zWbP4MA2-26" value="enable" style="html=1;verticalAlign=bottom;endArrow=block;entryX=0;entryY=0;labelBackgroundColor=none;fontFamily=Verdana;fontSize=12;edgeStyle=elbowEdgeStyle;elbow=vertical;" edge="1" parent="1">
          <mxGeometry relative="1" as="geometry">
            <mxPoint x="155" y="194" as="sourcePoint" />
            <mxPoint x="285" y="194" as="targetPoint" />
          </mxGeometry>
        </mxCell>
        <mxCell id="-loWOBMDPaf_zWbP4MA2-27" value="execute" style="html=1;verticalAlign=bottom;endArrow=block;entryX=0;entryY=0;labelBackgroundColor=none;fontFamily=Verdana;fontSize=12;edgeStyle=elbowEdgeStyle;elbow=vertical;" edge="1" parent="1" source="-loWOBMDPaf_zWbP4MA2-2" target="-loWOBMDPaf_zWbP4MA2-4">
          <mxGeometry relative="1" as="geometry">
            <mxPoint x="370" y="200" as="sourcePoint" />
          </mxGeometry>
        </mxCell>
        <mxCell id="-loWOBMDPaf_zWbP4MA2-33" value="Note" style="shape=note;whiteSpace=wrap;html=1;size=14;verticalAlign=top;align=left;spacingTop=-6;rounded=0;shadow=0;comic=0;labelBackgroundColor=none;strokeWidth=1;fontFamily=Verdana;fontSize=12" vertex="1" parent="1">
          <mxGeometry x="100" y="30" width="100" height="35" as="geometry" />
        </mxCell>
        <mxCell id="-loWOBMDPaf_zWbP4MA2-34" value="INfcAdapter.Stub" style="shape=note;whiteSpace=wrap;html=1;size=14;verticalAlign=top;align=left;spacingTop=-6;rounded=0;shadow=0;comic=0;labelBackgroundColor=none;strokeWidth=1;fontFamily=Verdana;fontSize=12" vertex="1" parent="1">
          <mxGeometry x="240" y="30" width="100" height="35" as="geometry" />
        </mxCell>
        <mxCell id="-loWOBMDPaf_zWbP4MA2-35" value="异步任务：管理涉及打开/关闭NFC控制器的任务" style="shape=note;whiteSpace=wrap;html=1;size=14;verticalAlign=top;align=left;spacingTop=-6;rounded=0;shadow=0;comic=0;labelBackgroundColor=none;strokeWidth=1;fontFamily=Verdana;fontSize=12" vertex="1" parent="1">
          <mxGeometry x="400" y="30" width="100" height="35" as="geometry" />
        </mxCell>
        <mxCell id="-loWOBMDPaf_zWbP4MA2-36" value="监视NFC底层操作是否超时" style="shape=note;whiteSpace=wrap;html=1;size=14;verticalAlign=top;align=left;spacingTop=-6;rounded=0;shadow=0;comic=0;labelBackgroundColor=none;strokeWidth=1;fontFamily=Verdana;fontSize=12" vertex="1" parent="1">
          <mxGeometry x="540" y="30" width="100" height="35" as="geometry" />
        </mxCell>
        <mxCell id="-loWOBMDPaf_zWbP4MA2-38" value="&lt;span style=&quot;font-size: 11px&quot;&gt;获取wake lock，防止nfc休眠&lt;/span&gt;" style="shape=note;whiteSpace=wrap;html=1;size=14;verticalAlign=top;align=left;spacingTop=-6;rounded=0;shadow=0;comic=0;labelBackgroundColor=none;strokeWidth=1;fontFamily=Verdana;fontSize=12" vertex="1" parent="1">
          <mxGeometry x="820" y="30" width="100" height="35" as="geometry" />
        </mxCell>
        <mxCell id="-loWOBMDPaf_zWbP4MA2-39" value="Note" style="shape=note;whiteSpace=wrap;html=1;size=14;verticalAlign=top;align=left;spacingTop=-6;rounded=0;shadow=0;comic=0;labelBackgroundColor=none;strokeWidth=1;fontFamily=Verdana;fontSize=12" vertex="1" parent="1">
          <mxGeometry x="960" y="30" width="100" height="35" as="geometry" />
        </mxCell>
        <mxCell id="-loWOBMDPaf_zWbP4MA2-41" value="acquire" style="html=1;verticalAlign=bottom;endArrow=block;rounded=0;entryX=-0.071;entryY=0.281;entryDx=0;entryDy=0;entryPerimeter=0;exitX=0.914;exitY=0.476;exitDx=0;exitDy=0;exitPerimeter=0;" edge="1" parent="1">
          <mxGeometry width="80" relative="1" as="geometry">
            <mxPoint x="459.14" y="288.08000000000004" as="sourcePoint" />
            <mxPoint x="724.29" y="288.42999999999995" as="targetPoint" />
          </mxGeometry>
        </mxCell>
        <mxCell id="-loWOBMDPaf_zWbP4MA2-42" value="&lt;span style=&quot;font-size: 11px&quot;&gt;获取到wake lock期间可防止nfc休眠&lt;/span&gt;" style="shape=note;whiteSpace=wrap;html=1;size=14;verticalAlign=top;align=left;spacingTop=-6;rounded=0;shadow=0;comic=0;labelBackgroundColor=none;strokeWidth=1;fontFamily=Verdana;fontSize=12" vertex="1" parent="1">
          <mxGeometry x="680" y="30" width="100" height="35" as="geometry" />
        </mxCell>
        <mxCell id="-loWOBMDPaf_zWbP4MA2-46" value="release" style="html=1;verticalAlign=bottom;endArrow=block;rounded=0;entryX=-0.071;entryY=0.281;entryDx=0;entryDy=0;entryPerimeter=0;exitX=0.914;exitY=0.476;exitDx=0;exitDy=0;exitPerimeter=0;" edge="1" parent="1">
          <mxGeometry width="80" relative="1" as="geometry">
            <mxPoint x="459.84999999999985" y="345.00000000000006" as="sourcePoint" />
            <mxPoint x="725" y="345.34999999999997" as="targetPoint" />
          </mxGeometry>
        </mxCell>
      </root>
    </mxGraphModel>
  </diagram>
</mxfile>
